# xmcd
# Copyright (C) 1995-1998 Ti Kan
#
# Track frame offsets:
#       150
#       12235
#       26360
#       44082
#       61442
#       78200
#       95275
#       103830
#       115737
#       132017
#       143995
#       153200
#       170910
#       192675
#
# Disc length: 2741 seconds
#
# Revision: 0
# Processed by: cddbd v1.5.2PL0 Copyright (c) Steve Scherf et al.
# Submitted via: CD-Transfer v1.0
#
DISCID=bc0ab30e
DTITLE=Carpe Diem - Carpe Diem
DYEAR=97
DGENRE=
TTITLE0=Fire
TTITLE1=You're Teh One That I Want
TTITLE2=Can I Hold Your Hand
TTITLE3=You Came
TTITLE4=I Feel High
TTITLE5=Tonight
TTITLE6=Let's Stay Together
TTITLE7=A Rockin Good Wy
TTITLE8=I Wanna Show You
TTITLE9=Good Rockin Tonight
TTITLE10=Nicht And Day
TTITLE11=Dancing In The Street
TTITLE12=Sometimes Love Just Ain't Enough
TTITLE13=Bonita
EXTD=
EXTT0=
EXTT1=
EXTT2=
EXTT3=
EXTT4=
EXTT5=
EXTT6=
EXTT7=
EXTT8=
EXTT9=
EXTT10=
EXTT11=
EXTT12=
EXTT13=
PLAYORDER=
